<?xml version="1.0" encoding="iso-8859-1"?>
<!-- Uploaded to: SVG Repo, www.svgrepo.com, Generator: SVG Repo Mixer Tools -->
<svg version="1.1" id="Layer_1" xmlns="http://www.w3.org/2000/svg" xmlns:xlink="http://www.w3.org/1999/xlink" 
	 viewBox="0 0 512 512" xml:space="preserve">
<path style="fill:#2D2E30;" d="M512,137.917c0-9.251-7.5-16.75-16.75-16.75H16.75c-9.251,0-16.75,7.5-16.75,16.75v308.189
	c0,9.251,7.5,16.75,16.75,16.75H495.25c9.251,0,16.75-7.5,16.75-16.75V137.917z"/>
<path style="fill:#2D2D2E;" d="M425.614,154.668c4.89,0,9.538-2.137,12.719-5.851s4.583-8.632,3.834-13.466L431,63.327
	c-1.265-8.163-8.293-14.184-16.553-14.184h-132.32c-8.453,0-15.582,6.299-16.623,14.689l-8.933,72.023
	c-0.591,4.765,0.891,9.554,4.071,13.153c3.179,3.598,7.75,5.658,12.552,5.658h152.421V154.668z"/>
<path style="fill:#FFFFFF;" d="M406.912,130.457l-6.922-44.65c-0.785-5.061-5.141-8.793-10.261-8.793h-82.031
	c-5.241,0-9.66,3.905-10.305,9.107l-5.539,44.65c-0.366,2.954,0.553,5.923,2.524,8.154c1.971,2.231,4.805,3.509,7.781,3.509h94.493
	c3.032,0,5.913-1.326,7.885-3.627C406.508,136.502,407.377,133.453,406.912,130.457z"/>
<rect x="120.881" y="101.91" style="fill:#ACACB2;" width="269.668" height="25.652"/>
<path style="fill:#2D2D2E;" d="M512,137.917c0-9.251-7.5-16.75-16.75-16.75H256.444v341.69H495.25c9.251,0,16.75-7.5,16.75-16.75
	V137.917z"/>
<path style="fill:#1D1D1F;" d="M255.721,140.699c-83.434,0-151.313,67.879-151.313,151.313s67.879,151.314,151.313,151.314
	s151.313-67.879,151.313-151.313S339.155,140.699,255.721,140.699z"/>
<path style="fill:#3E3E42;" d="M255.721,157.179c-74.348,0-134.834,60.486-134.834,134.834s60.486,134.833,134.834,134.833
	s134.834-60.486,134.834-134.834S330.069,157.179,255.721,157.179z"/>
<path style="fill:#2D2E30;" d="M256,157.182v269.66c74.219-0.152,134.555-60.576,134.555-134.83S330.219,157.334,256,157.182z"/>
<path style="fill:#57565C;" d="M255.721,200.73c-50.333,0-91.283,40.95-91.283,91.283s40.95,91.283,91.283,91.283
	s91.283-40.95,91.283-91.283S306.054,200.73,255.721,200.73z"/>
<circle style="fill:#1D1D1F;" cx="71.175" cy="203.617" r="35.823"/>
<circle style="fill:#A52000;" cx="71.175" cy="193.567" r="35.823"/>
<circle style="fill:#7D1800;" cx="71.175" cy="193.567" r="15.723"/>
<path style="fill:#1D1D1F;" d="M436.624,426.846c-9.251,0-16.75-8.023-16.75-17.921V153.272c0-9.897,7.5-17.921,16.75-17.921
	s16.75,8.023,16.75,17.921v255.653C453.374,418.823,445.874,426.846,436.624,426.846z"/>
<path style="fill:#3E3E42;" d="M256.444,200.748v182.53c50.001-0.392,90.56-41.173,90.56-91.264
	C347.004,241.921,306.444,201.139,256.444,200.748z"/>
<g>
	<path style="fill:#1D1D1F;" d="M255.721,225.297c46.166,0,84.412,34.458,90.434,79c0.544-4.021,0.85-8.116,0.85-12.284
		c0-50.333-40.95-91.283-91.283-91.283s-91.283,40.95-91.283,91.283c0,4.167,0.306,8.262,0.85,12.284
		C171.308,259.753,209.555,225.297,255.721,225.297z"/>
	<path style="fill:#1D1D1F;" d="M512,137.917c0-9.251-7.5-16.75-16.75-16.75H16.75c-9.251,0-16.75,7.5-16.75,16.75v35.734
		c0-9.251,7.5-16.75,16.75-16.75H495.25c9.251,0,16.75,7.5,16.75,16.75V137.917z"/>
</g>
<path style="fill:#2D2E30;" d="M255.721,261.394c-16.883,0-30.62,13.735-30.62,30.619c0,16.883,13.735,30.618,30.62,30.618
	c16.884,0,30.618-13.735,30.618-30.618C286.339,275.129,272.604,261.394,255.721,261.394z"/>
<path style="fill:#FFFFFF;" d="M227.422,252.513c-13.573,0-24.616,11.043-24.616,24.616c0,13.573,11.043,24.616,24.616,24.616
	s24.616-11.043,24.616-24.616C252.038,263.555,240.995,252.513,227.422,252.513z"/>
</svg>